<svg xmlns="http://www.w3.org/2000/svg" width="359" height="102" viewBox="0 0 359 102"><defs><style>.cls-1,.cls-3{opacity:0.5;}.cls-2{fill:#999;}.cls-3,.cls-6{fill:none;}.cls-4,.cls-5{fill:#fff;}.cls-5{fill-rule:evenodd;}</style></defs><title>mpg_logo_text_only</title><path id="back_bar" class="cls-1" d="M359 102h-359v-39h359z"/><g id="proving_grounds"><path class="cls-2" d="M12.954 84.808v7.756c0 .361-.091.481-.481.481h-1.414c-.39 0-.481-.12-.481-.481v-20.083c0-.421.121-.481.481-.481h7.066c3.668 0 7.4 1.413 7.4 6.283s-3.728 6.525-7.4 6.525zm5.021-2.045c4.179 0 5.231-2.2 5.231-4.48 0-2.1-1.052-4.239-5.231-4.239h-5.021v8.719zM42.446 84.537l5.654 7.937c.24.391 0 .571-.361.571h-1.415a.948.948 0 0 1-.812-.481l-5.532-7.756h-5.38v7.756c0 .391-.121.481-.481.481h-1.414c-.361 0-.482-.06-.482-.481v-20.083c0-.361.121-.481.482-.481h7.155c3.428 0 7.306 1.443 7.306 6.313a5.9 5.9 0 0 1-4.72 6.224zm-2.736-1.774c3.578 0 5.141-1.714 5.141-4.45 0-3.006-2.045-4.269-5.141-4.269h-5.11v8.719zM64.512 71.609a10.915 10.915 0 1 1-10.763 10.913 10.881 10.881 0 0 1 10.763-10.913zm0 19.723c4.75 0 8.358-4.3 8.358-8.81 0-4.539-3.608-8.809-8.358-8.809-4.69 0-8.358 4.27-8.358 8.809 0 4.511 3.668 8.81 8.358 8.81zM79.933 72.481c-.12-.271 0-.481.271-.481h1.743c.331 0 .451.09.632.481l7.576 16.506h.03l7.577-16.506c.18-.391.331-.481.6-.481h1.744c.331 0 .391.24.3.481l-9.83 20.655c-.15.27-.21.421-.361.421h-.09c-.18 0-.21-.12-.391-.421zM106.929 72.481c0-.361.121-.481.481-.481h1.444c.36 0 .451.12.451.481v20.083c0 .361-.091.481-.451.481h-1.444c-.36 0-.481-.12-.481-.481zM120.849 92.564c0 .361-.121.481-.482.481h-1.413c-.36 0-.481-.12-.481-.481v-20.715c0-.21.06-.24.271-.24h.15a.438.438 0 0 1 .391.21l14.015 16.717v-16.055c0-.391.12-.481.481-.481h1.443c.361 0 .451.09.451.481v20.719c0 .21-.06.241-.241.241h-.15a.614.614 0 0 1-.451-.241l-13.98-16.807zM145.65 82.522c0 4.511 3.607 8.81 8.3 8.81a9.19 9.19 0 0 0 6.193-2.315v-4.871h-5.743c-.361 0-.481-.09-.481-.451v-1.142c0-.361.12-.482.481-.482h7.666c.361 0 .451.151.451.482v6.647a1.356 1.356 0 0 1-.481 1.083 11.981 11.981 0 0 1-8.087 3.157 10.916 10.916 0 0 1 0-21.828 11.776 11.776 0 0 1 7.877 3.067c.27.27.18.391-.06.661l-.9.992c-.211.241-.391.271-.692 0a9.323 9.323 0 0 0-6.223-2.616c-4.694-.003-8.301 4.267-8.301 8.806zM181.965 82.522c0 4.511 3.607 8.81 8.3 8.81a9.191 9.191 0 0 0 6.194-2.315v-4.871h-5.743c-.36 0-.48-.09-.48-.451v-1.142c0-.361.12-.482.48-.482h7.667c.361 0 .451.151.451.482v6.647a1.356 1.356 0 0 1-.481 1.083 11.981 11.981 0 0 1-8.088 3.157 10.916 10.916 0 0 1 0-21.828 11.772 11.772 0 0 1 7.877 3.067c.271.27.181.391-.06.661l-.9.992c-.211.241-.391.271-.692 0a9.324 9.324 0 0 0-6.224-2.616c-4.694-.003-8.301 4.267-8.301 8.806zM216.958 84.537l5.652 7.937c.241.391 0 .571-.361.571h-1.413a.946.946 0 0 1-.811-.481l-5.532-7.756h-5.382v7.756c0 .391-.121.481-.481.481h-1.413c-.361 0-.481-.06-.481-.481v-20.083c0-.361.12-.481.481-.481h7.155c3.428 0 7.306 1.443 7.306 6.313a5.9 5.9 0 0 1-4.72 6.224zm-2.736-1.774c3.578 0 5.141-1.714 5.141-4.45 0-3.006-2.044-4.269-5.141-4.269h-5.111v8.719zM239.024 71.609a10.915 10.915 0 1 1-10.763 10.913 10.881 10.881 0 0 1 10.763-10.913zm0 19.723c4.751 0 8.358-4.3 8.358-8.81 0-4.539-3.607-8.809-8.358-8.809-4.69 0-8.358 4.27-8.358 8.809 0 4.511 3.668 8.81 8.358 8.81zM256.55 84.387v-11.906c0-.391.12-.481.48-.481h1.414c.36 0 .481.12.481.481v11.755c0 4.991 2.525 7.1 6.133 7.1s6.134-2.1 6.134-7.1v-11.755c0-.361.12-.481.48-.481h1.444c.36 0 .45.12.45.481v11.906c0 5.983-3.607 9.05-8.508 9.05s-8.508-3.067-8.508-9.05zM284.267 92.564c0 .361-.12.481-.481.481h-1.413c-.361 0-.481-.12-.481-.481v-20.715c0-.21.06-.24.27-.24h.151a.438.438 0 0 1 .391.21l14.01 16.717v-16.055c0-.391.12-.481.481-.481h1.443c.361 0 .451.09.451.481v20.719c0 .21-.06.241-.24.241h-.15a.614.614 0 0 1-.451-.241l-13.981-16.811zM315.983 72a10.523 10.523 0 0 1 0 21.045h-7.366c-.33 0-.481-.12-.481-.481v-20.083c0-.361.121-.481.481-.481zm-5.472 2.044v16.956h5.442c4.9 0 8.088-3.968 8.088-8.479 0-4.539-3.187-8.478-8.088-8.478zM335.133 77.892c0 2.466 2.8 3.1 6.1 3.518 3.878.511 7.186 1.714 7.186 5.743 0 3.217-2.5 6.223-7.667 6.223a13.665 13.665 0 0 1-8.118-2.315c-.3-.18-.3-.331-.12-.661l.572-.962c.21-.331.33-.391.691-.181a12.15 12.15 0 0 0 6.674 2.015c2.766 0 5.653-.9 5.653-4.029 0-2.5-2.255-3.307-6.194-3.849-3.277-.451-7.1-1.443-7.1-5.441 0-2.315 1.744-6.284 7.576-6.284a13.07 13.07 0 0 1 7.4 2.285c.331.18.271.361.151.662l-.571.931c-.181.331-.361.451-.662.211a10.638 10.638 0 0 0-6.013-1.985c-4.566 0-5.558 2.556-5.558 4.119z"/></g><path class="cls-3" d="M0 72h359v21h-359z"/><g id="MAVERICKS"><path class="cls-4" d="M305.215 28.493l12.815 18.507h-9.612l-8.392-12.81-5.278 5.836v6.974h-7.401v-31h7.401v13.633l11.731-13.633h9.296l-10.56 12.493zM273.448 23.206l-6.273 3.69a8.738 8.738 0 0 0-8.167-4.7 8.831 8.831 0 0 0-9.115 9.075 9.088 9.088 0 0 0 9.115 9.253 8.911 8.911 0 0 0 8.079-4.695l6.269 3.645a16.415 16.415 0 0 1-14.348 8.07c-9.613 0-16.6-7.113-16.6-16.273 0-8.617 6.991-15.823 16.6-15.823 6.542.004 11.692 3.107 14.44 7.758zM63.14 47l2.035-4.829 2.569-6.111 4.872-11.581 7.337 17.692h.02l1.987 4.829h7.894l-13.176-31-4.134-9.732-4.122 9.732-13.132 31h7.85z"/><path class="cls-5" d="M199.985 37.657l6.315 9.343h-9.2l-4.6-7.7h-5.414v7.7h-7.4v-31h14.846c6.225 0 10.92 4.878 10.92 11.625a11.165 11.165 0 0 1-5.467 10.032zm-1.985-10.032a4.642 4.642 0 0 0-4.515-4.695h-6.405v9.436h6.361a4.658 4.658 0 0 0 4.559-4.741z"/><path class="cls-4" d="M42.86 16v31h-7.445v-15.818l-7.353 15.818h-8.26l-7.352-15.818v15.818h-7.401v-31h8.211l10.696 22.748 10.648-22.748h8.256zM353.185 25.805h-7.357c0-1.553-1.806-3.65-4.965-3.65-2.211 0-4.916 1-4.916 2.782 0 1.5 2.03 2.1 6.361 3.236 4.828 1.277 11.643 2.919 11.643 9.756 0 5.929-5.145 9.619-12.317 9.619-9.613 0-13.63-6.565-13.63-11.4h7.357s.586 4.923 6.678 4.923c3.291 0 4.511-1.415 4.511-2.737 0-1.959-2.572-2.644-5.414-3.325-4.6-1.1-12.679-2.827-12.679-9.712 0-5.653 5.5-9.85 12.5-9.85 7.985.005 12.228 5.524 12.228 10.358zM165.104 40.07v6.93h-23.508v-31h23.508v6.93h-16.107v5.336h13.446v6.472h-13.446v5.332h16.107zM129.006 16h-8.167l-9.476 22.156-9.524-22.156h-8.164l13.582 31 4.053 9.258 17.696-40.258zM227.943 31.303v20.786h-7.224v-4.355l7.224-16.431zM227.943 9.917v12.871l-7.224 16.431v-29.302h7.224z"/></g><path id="boundary" class="cls-6" d="M359 47h-359v-31h359z"/><path id="boundary-2" class="cls-6" d="M359 102h-359v-102h359z"/></svg>